<svg width="92" height="44" viewBox="0 0 92 44" fill="none" xmlns="http://www.w3.org/2000/svg">
<path d="M11.84 34.48C10.3893 34.48 9.008 34.224 7.696 33.712C6.384 33.1893 5.22133 32.4213 4.208 31.408C3.20533 30.3947 2.41067 29.1413 1.824 27.648C1.248 26.1547 0.96 24.432 0.96 22.48C0.96 19.9307 1.44533 17.7653 2.416 15.984C3.39733 14.192 4.70933 12.8267 6.352 11.888C8.00533 10.9493 9.83467 10.48 11.84 10.48C14.8053 10.48 17.136 11.168 18.832 12.544C20.528 13.92 21.664 15.8667 22.24 18.384L17.792 19.024C17.376 17.68 16.6933 16.608 15.744 15.808C14.8053 14.9973 13.6 14.5867 12.128 14.576C10.6667 14.5547 9.45067 14.8693 8.48 15.52C7.50933 16.1707 6.77867 17.0933 6.288 18.288C5.808 19.4827 5.568 20.88 5.568 22.48C5.568 24.08 5.808 25.4667 6.288 26.64C6.77867 27.8133 7.50933 28.7253 8.48 29.376C9.45067 30.0267 10.6667 30.3627 12.128 30.384C13.12 30.4053 14.016 30.2347 14.816 29.872C15.6267 29.5093 16.3093 28.9387 16.864 28.16C17.4187 27.3813 17.8133 26.384 18.048 25.168H14.4V21.808H22.688C22.7093 21.9467 22.7253 22.192 22.736 22.544C22.7467 22.896 22.752 23.0987 22.752 23.152C22.752 25.36 22.304 27.3173 21.408 29.024C20.512 30.7307 19.248 32.0693 17.616 33.04C15.984 34 14.0587 34.48 11.84 34.48ZM31.8148 34.48C30.0761 34.48 28.5508 34.0907 27.2387 33.312C25.9268 32.5333 24.9028 31.4613 24.1667 30.096C23.4414 28.72 23.0788 27.1413 23.0788 25.36C23.0788 23.5573 23.4521 21.9733 24.1988 20.608C24.9454 19.232 25.9748 18.16 27.2868 17.392C28.5988 16.624 30.1081 16.24 31.8148 16.24C33.5534 16.24 35.0788 16.6293 36.3908 17.408C37.7134 18.1867 38.7428 19.264 39.4788 20.64C40.2148 22.0053 40.5828 23.5787 40.5828 25.36C40.5828 27.152 40.2094 28.736 39.4628 30.112C38.7268 31.4773 37.6974 32.5493 36.3748 33.328C35.0628 34.096 33.5428 34.48 31.8148 34.48ZM31.8148 30.416C33.2121 30.416 34.2521 29.9467 34.9348 29.008C35.6281 28.0587 35.9748 26.8427 35.9748 25.36C35.9748 23.824 35.6228 22.5973 34.9188 21.68C34.2254 20.7627 33.1908 20.304 31.8148 20.304C30.8654 20.304 30.0868 20.5173 29.4788 20.944C28.8708 21.3707 28.4174 21.9627 28.1188 22.72C27.8308 23.4773 27.6868 24.3573 27.6868 25.36C27.6868 26.9067 28.0334 28.1387 28.7268 29.056C29.4308 29.9627 30.4601 30.416 31.8148 30.416Z" fill="#FF7125"/>
<path d="M42.5013 34V10.48H46.8533V34H42.5013ZM54.53 34.48C53.2927 34.48 52.242 34.2453 51.378 33.776C50.5247 33.296 49.874 32.6613 49.426 31.872C48.9887 31.072 48.77 30.192 48.77 29.232C48.77 28.432 48.8927 27.7013 49.138 27.04C49.3833 26.3787 49.778 25.7973 50.322 25.296C50.8767 24.784 51.618 24.3573 52.546 24.016C53.186 23.7813 53.9487 23.5733 54.834 23.392C55.7193 23.2107 56.722 23.04 57.842 22.88C58.962 22.7093 60.194 22.5227 61.538 22.32L59.97 23.184C59.97 22.16 59.7247 21.408 59.234 20.928C58.7433 20.448 57.922 20.208 56.77 20.208C56.13 20.208 55.4633 20.3627 54.77 20.672C54.0767 20.9813 53.5913 21.5307 53.314 22.32L49.378 21.072C49.8153 19.6427 50.6367 18.48 51.842 17.584C53.0473 16.688 54.69 16.24 56.77 16.24C58.2953 16.24 59.65 16.4747 60.834 16.944C62.018 17.4133 62.914 18.224 63.522 19.376C63.8633 20.016 64.066 20.656 64.13 21.296C64.194 21.936 64.226 22.6507 64.226 23.44V34H60.418V30.448L60.962 31.184C60.1193 32.3467 59.2073 33.1893 58.226 33.712C57.2553 34.224 56.0233 34.48 54.53 34.48ZM55.458 31.056C56.258 31.056 56.93 30.9173 57.474 30.64C58.0287 30.352 58.466 30.0267 58.786 29.664C59.1167 29.3013 59.3407 28.9973 59.458 28.752C59.682 28.2827 59.81 27.7387 59.842 27.12C59.8847 26.4907 59.906 25.968 59.906 25.552L61.186 25.872C59.8953 26.0853 58.85 26.2667 58.05 26.416C57.25 26.5547 56.6047 26.6827 56.114 26.8C55.6233 26.9173 55.1913 27.0453 54.818 27.184C54.3913 27.3547 54.0447 27.5413 53.778 27.744C53.522 27.936 53.33 28.1493 53.202 28.384C53.0847 28.6187 53.026 28.88 53.026 29.168C53.026 29.5627 53.122 29.904 53.314 30.192C53.5167 30.4693 53.7993 30.6827 54.162 30.832C54.5247 30.9813 54.9567 31.056 55.458 31.056ZM66.7862 34V10.48H71.1382V34H66.7862ZM81.791 34.48C80.0523 34.48 78.527 34.0907 77.215 33.312C75.903 32.5333 74.879 31.4613 74.143 30.096C73.4177 28.72 73.055 27.1413 73.055 25.36C73.055 23.5573 73.4283 21.9733 74.175 20.608C74.9217 19.232 75.951 18.16 77.263 17.392C78.575 16.624 80.0843 16.24 81.791 16.24C83.5297 16.24 85.055 16.6293 86.367 17.408C87.6897 18.1867 88.719 19.264 89.455 20.64C90.191 22.0053 90.559 23.5787 90.559 25.36C90.559 27.152 90.1857 28.736 89.439 30.112C88.703 31.4773 87.6737 32.5493 86.351 33.328C85.039 34.096 83.519 34.48 81.791 34.48ZM81.791 30.416C83.1883 30.416 84.2283 29.9467 84.911 29.008C85.6043 28.0587 85.951 26.8427 85.951 25.36C85.951 23.824 85.599 22.5973 84.895 21.68C84.2017 20.7627 83.167 20.304 81.791 20.304C80.8417 20.304 80.063 20.5173 79.455 20.944C78.847 21.3707 78.3937 21.9627 78.095 22.72C77.807 23.4773 77.663 24.3573 77.663 25.36C77.663 26.9067 78.0097 28.1387 78.703 29.056C79.407 29.9627 80.4363 30.416 81.791 30.416Z" fill="#202125"/>
</svg>
